<svg width="1171" height="2009" xmlns="http://www.w3.org/2000/svg" xmlns:xlink="http://www.w3.org/1999/xlink" xml:space="preserve" overflow="hidden"><defs><clipPath id="clip0"><rect x="382" y="163" width="1171" height="2009"/></clipPath></defs><g clip-path="url(#clip0)" transform="translate(-382 -163)"><path d="M1305.91 1260.55C1339.78 1311.77 1380.01 1379.08 1384.67 1437.93 1392.29 1540.37 1382.97 1664.84 1331.32 1746.54 1309.3 1783.37 1275.01 1796.49 1247.91 1756.7 990.49 1322.78 162.339 1102.22 443.47 495.582 491.734 416.418 535.344 440.124 562.019 509.978 599.7 597.183 653.471 671.267 716.555 737.73 893.957 926.113 1145.03 1049.3 1302.95 1256.74L1305.49 1260.55Z" fill="#F9AA4C" fill-rule="evenodd"/><path d="M1047.5 1746.1C1072.06 1785.91 1080.96 1836.73 1086.89 1885 1097.9 1975.2 1079.26 1995.11 1037.33 2064.14 1018.26 2095.47 932.274 2200.92 920.835 2162.81 792.479 1743.56 200.271 1707.99 437.494 1346.76 453.167 1323.04 466.3 1306.1 478.161 1295.09 487.901 1285.78 496.8 1281.54 505.272 1281.12 536.195 1279 564.578 1305.68 590.84 1331.94 624.729 1365.39 662.429 1394.19 696.745 1427.22 705.64 1435.69 755.202 1479.31 853.902 1566.12 896.263 1603.39 922.53 1626.25 972.091 1669.45 987.341 1683 1010.64 1703.33 1025.47 1716.46" fill="#F79421" fill-rule="evenodd"/><path d="M1478.01 749.145C1541.57 813.497 1550.46 872.768 1551.74 917.642 1554.28 1004.01 1555.55 1076.83 1529.28 1150.92 1518.26 1184.36 1496.65 1198.76 1473.78 1168.27 1255.57 835.512 642.05 704.267 792.465 329.59 796.277 319.852 884.829 194.962 889.069 185.646 912.373 135.265 921.27 178.45 942.453 222.902 973.386 288.103 994.992 334.67 1039.06 387.168 1162.35 534.921 1311.92 559.056 1439.88 707.654 1444.11 712.734 1483.09 745.759 1477.17 748.723L1477.17 748.723Z" fill="#FABE78" fill-rule="evenodd"/></g></svg>