<svg width="2115" height="1039" xmlns="http://www.w3.org/2000/svg" xmlns:xlink="http://www.w3.org/1999/xlink" xml:space="preserve" overflow="hidden"><defs><clipPath id="clip0"><rect x="1181" y="451" width="2115" height="1039"/></clipPath></defs><g clip-path="url(#clip0)" transform="translate(-1181 -451)"><path d="M1181.07 1375C1204.07 1363.35 1223.26 1343.92 1250.87 1355.54 1276.84 1366.48 1267.04 1395.98 1266.38 1416.72 1265.83 1434.15 1266.14 1438.28 1284.99 1436.63 1307.41 1434.64 1324.08 1409.19 1343.65 1400.11 1354.14 1359.25 1368.72 1320.29 1382.82 1280.47 1384.02 1277.03 1391.17 1263.45 1391.24 1261.9 1391.31 1260.39 1383.13 1250.76 1381.41 1247.56 1372.74 1231.74 1374.6 1215.64 1376.49 1198.31 1338.9 1194.53 1305.27 1185.9 1284.61 1152.02 1266.76 1122.79 1271.95 1086.55 1282.96 1055.7 1250.26 1048.2 1211.05 1023.03 1209.37 986.473 1206.93 934.029 1258.27 869.755 1312.5 866.522 1321.3 866.006 1329.38 867.795 1338.01 867.932 1333.47 853.42 1323.33 841.624 1318.07 826.837 1297.88 770.06 1325.29 720.78 1380.34 699.733 1406.61 689.692 1437.25 700.283 1458.3 717.41 1461.15 719.713 1463.76 726.591 1467.96 725.353 1469.64 724.872 1474.9 713.523 1476.76 710.738 1506.82 665.963 1531.85 652.035 1583.6 674.938 1589.14 677.38 1593.4 682.229 1599.63 681.61 1608.05 616.236 1687.73 621.394 1726.96 656.987 1732.05 661.63 1733.8 666.444 1738.69 670.64 1744.98 635.769 1783.39 605.747 1818.88 607.913 1874.79 611.352 1901.37 658.122 1879.4 708.537 1875.34 717.857 1863.82 732.781 1861.86 740.45 1861.45 742.067 1860.76 742.823 1862.62 743.958 1868.39 747.5 1905.33 739.041 1915.64 739.006 1949.96 738.903 2008.14 761.978 2020.04 796.918 2025.4 812.668 2026.61 824.808 2014.16 837.119 1997.14 853.936 1968.18 848.365 1948.48 839.389 1932.59 832.167 1918.43 820.543 1902.61 813.115 1900.65 815.144 1919.01 841.762 1921.25 845.923 1947.86 895.478 1977.54 970.138 1965.81 1026.05 1961.24 1047.96 1952.16 1064.23 1935.45 1079.39 1929.71 1084.62 1918.77 1092.63 1911.76 1095.62 1906.19 1098 1886.93 1101.33 1884.76 1104.39 1880.57 1110.27 1880.4 1139.27 1878.54 1148.89 1872.07 1182.84 1856.15 1215.13 1825.69 1233.22L1855.77 1380.4C1859.18 1381.75 1858.08 1378 1859.42 1377.65 1872.21 1374.32 1889.47 1383.4 1897.83 1392.68 1901.47 1396.74 1906.7 1414.11 1906.7 1419.47 1906.7 1426.76 1902.75 1434.26 1899.82 1440.69 1906.7 1441.89 1912.17 1447.91 1918.15 1450.56 1942.77 1461.56 1980.36 1459.74 2005.15 1450.28 2019.42 1444.85 2034.21 1435.6 2048.51 1429.72 2048.89 1427.83 2048.44 1427.45 2047.07 1426.42 2043.32 1423.53 2031.83 1420.33 2026.95 1417.68 2004.33 1405.37 1976.37 1377.89 1979.81 1349.73 1987.58 1286.31 2057.04 1271.15 2101.5 1309.22 2135.27 1338.14 2114.81 1394.26 2087.09 1420.16 2116.63 1427.28 2145.55 1428.31 2175.54 1422.57 2207.35 1416.48 2227.77 1402.72 2253.8 1385.36 2256.42 1383.64 2260.44 1383.33 2263.26 1381.06 2269.48 1376.14 2280.28 1333.46 2284.3 1322.53 2295.24 1292.99 2309.58 1259.08 2322.23 1230.12 2334.89 1201.17 2350.84 1173.1 2363.77 1144.05 2323.99 1144.84 2284.44 1143.25 2259.37 1108.21 2242.18 1084.17 2234.37 1049.71 2231.62 1020.72 2231.07 1014.78 2233.1 999.369 2229.56 995.379 2228.29 993.935 2198.75 986.507 2192.7 984.1 2087.44 942.282 2131.59 791.931 2178.15 720.917 2185.2 710.153 2195.79 701.074 2202.46 691.686 2205.97 686.768 2208.48 678.481 2212.3 672.703 2214.43 669.47 2221.79 665.378 2220.55 660.426 2220.14 658.741 2218.38 658.122 2216.46 658.982 2212.64 660.667 2202.63 667.339 2198.65 670.055 2169.83 689.451 2143.83 720.264 2113.64 737.562 2097.58 746.778 2066.88 753.553 2049.78 745.368 2026.44 734.226 2031.7 704.273 2042.08 685.53 2062.13 649.421 2112.13 625.28 2152.43 622.701 2162.06 622.082 2210.85 621.91 2210.99 635.7 2211.09 647.461 2174.88 638.142 2167.63 637.695 2137.37 635.906 2107.97 645.364 2084.34 663.177 2073.79 671.155 2057.28 689.348 2052.91 701.762 2049.99 710.05 2046.52 726.935 2056.77 731.578 2058.79 732.506 2075.68 733.091 2078.98 732.85 2108.14 730.821 2135.2 700.455 2156.59 682.985 2169.97 672.05 2204.39 643.334 2220.24 640.721 2230.49 639.036 2226.77 654.821 2219.21 657.606 2226.29 662.799 2229.08 655.646 2234.48 652.276 2296.75 613.175 2337.57 676.073 2311.09 733.985 2294.55 770.129 2237.54 798.741 2206.83 763.113 2197.27 752.04 2196.45 738.009 2195.14 724.081 2193.38 725.285 2191.94 726.041 2190.5 727.692 2170.31 750.561 2145.14 834.953 2143.42 865.835 2141.6 898.951 2148.82 937.984 2178.01 957.586 2193.56 968.005 2211.37 973.714 2230.04 974.643 2232.1 973.336 2231.97 945.377 2233.07 939.978L2241.18 913.842 2230.9 899.502C2221.65 911.366 2206.21 903.56 2197.65 894.859 2189.6 886.709 2192.97 876.495 2201.98 870.683 2218.38 860.091 2241.49 884.714 2248.82 898.092 2250.29 898.47 2259 887.225 2261.95 885.161 2282.14 871.199 2305.52 880.725 2301.7 906.895 2300.09 918.003 2276.94 932.928 2266.35 934.751 2258.79 936.058 2256.45 935.404 2250.84 930.968 2246.48 945.756 2246.27 960.887 2246.68 976.19L2287.29 976.19C2291.87 976.19 2330.28 964.36 2336.06 961.678 2343.28 958.308 2359.34 946.031 2365.73 940.529 2403.63 907.962 2418.96 861.226 2430.21 814.216 2431.51 808.679 2440.35 780.514 2438.05 777.488 2436.09 774.943 2434.99 779.448 2434.51 780.067 2415.52 805.412 2396.89 814.457 2365.53 802.386 2288.57 772.742 2331.62 665.103 2404.31 662.283 2431.14 661.251 2445.78 696.501 2449.09 718.544 2451.39 720.642 2456.75 709.534 2458.16 707.712 2461.16 703.826 2469 693.44 2473.5 692.718 2483.88 691.101 2486.26 710.359 2488.97 716.515 2501.53 744.886 2543.51 794.786 2577.35 793.101 2605.27 791.725 2617.65 765.452 2612.25 740.416 2608.4 722.465 2581.85 689.107 2565.66 679.891 2531.44 660.461 2503.59 665.791 2468.62 657.228 2462.12 655.646 2454.24 654.855 2454.52 646.636 2454.97 632.983 2465.45 637.213 2473.19 632.192 2479.07 628.375 2488.05 619.228 2490.8 612.693 2495.71 601.035 2497.81 591.578 2489.04 581.158 2486.36 577.994 2461.43 562.932 2457.1 561.866 2453.83 561.075 2443.41 559.906 2441.11 561.212 2440.52 561.557 2435.12 571.839 2434.61 573.249 2431.24 582.328 2430.69 603.064 2418 604.75 2409.4 605.884 2399.98 590.409 2403.66 582.843 2403.08 582.121 2393.38 592.782 2388.91 593.607 2383.03 594.673 2374.36 589.206 2375.5 582.706 2377.29 572.526 2392.31 556.88 2396.1 545.806 2400.88 531.947 2399.64 523.006 2393.65 509.903 2380.14 480.294 2349.29 461.792 2316.35 467.811 2300.36 470.734 2277.43 492.915 2276.88 509.491 2276.64 517.022 2280.49 518.466 2282.45 524.656 2286.16 536.452 2293 559.39 2279.63 566.956 2262.5 576.688 2256.52 547.457 2256.28 535.592 2256 523.109 2262.3 520.667 2250.84 510.866 2235.61 497.833 2202.6 487.069 2182.69 488.307 2156.07 489.957 2137.16 517.916 2143.83 543.364 2151.64 573.214 2181.49 581.468 2202.29 600.313 2214.88 605.815 2222.79 600.313 2233.82 599.385 2247.3 598.215 2244.04 612.384 2232.52 617.336 2205.94 628.788 2188.3 609.942 2169.49 595.946 2153.46 584.047 2144.8 581.502 2134.65 562.072 2109.86 514.512 2141.7 466.951 2194.9 471.972 2209.72 473.382 2230.11 481.807 2243.83 487.653 2248.58 489.682 2258.82 497.557 2263.67 496.526 2275.81 473.932 2288.67 454.708 2316.46 451.716 2346.3 448.484 2371.61 456.015 2392.69 477.921 2412.98 498.968 2411.02 515.062 2413.05 542.367 2413.15 543.743 2411.47 546.631 2411.95 547.147 2417.79 544.637 2430.48 543.708 2435.3 540.923 2438.01 539.375 2440.97 531.844 2443.65 528.68 2461.95 507.049 2489.11 486.278 2513.8 472.453 2542.24 456.497 2572.6 464.131 2592.34 489.27 2598.26 496.801 2601.11 505.846 2605.41 514.271 2614.35 506.739 2622.77 498.555 2632.37 491.78 2666.24 467.914 2724.28 457.803 2749.56 498.245 2755.61 507.909 2758.12 519.498 2763.79 529.333 2792.58 512.999 2821.77 495.769 2854.89 489.786 2877.92 485.625 2906.98 484.111 2927.37 496.698 2938.2 503.369 2951.72 521.217 2951.72 534.148L2951.72 564.995C2979.4 560.8 3028.95 575.347 3042.88 601.035 3054.33 622.185 3049.69 655.474 3041.88 677.346 3039.75 683.295 3023.62 711.082 3026.1 714.383 3028.44 713.351 3029.81 711.151 3032.56 710.566 3057.11 705.132 3096.69 713.936 3114.16 732.919 3122.72 742.204 3126.13 754.619 3132.94 764.97 3154.43 753.828 3182.73 747.81 3204.19 762.563 3206.73 764.317 3216.94 774.186 3218.9 776.697 3220.28 778.451 3226.5 790.521 3226.71 792.035 3228.22 802.764 3222.24 812.806 3220.59 822.332 3219.28 829.76 3223.34 828.556 3227.12 833.336 3242.6 853.007 3244.63 869.686 3240.57 894.24 3234.58 930.349 3209.52 970.826 3167.53 951.533 3163.75 944.174 3145.45 935.954 3153.36 926.669 3161.48 917.178 3169.73 935.232 3177.19 938.809 3180.32 940.322 3190.88 942.282 3193.77 940.872 3196.07 939.737 3196.45 937.124 3197.86 936.299 3205.77 931.587 3208.31 932.413 3214.54 923.093 3229.01 901.427 3234.55 861.948 3212.61 843.206 3198.89 853.626 3186.65 884.061 3168.29 886.709 3151.51 889.116 3150.75 873.916 3155.5 861.605 3158.62 853.489 3173.24 836.603 3180.43 831.617 3191.98 823.604 3200.4 828.728 3207.18 811.671 3214.12 794.167 3203.43 777.247 3185.89 772.57 3171.55 768.753 3161.38 770.06 3148.38 776.456 3146.8 777.247 3137.06 782.75 3136.65 783.265 3132.35 788.424 3137.17 801.973 3137.65 808.266 3138.78 823.639 3134.24 850.875 3120.11 859.576 3108.59 866.694 3103.4 856.24 3100.58 846.542 3094.29 824.945 3099.03 811.534 3110.1 793.135 3113.54 787.427 3119.6 784.675 3119.32 777.316 3119.22 774.461 3112.13 755.719 3110.55 753.14 3095.39 728.277 3045.22 717.581 3020.66 732.954 2985.69 754.894 2988.79 795.336 3013 824.051 3023.07 836.019 3036.34 845.614 3046.8 856.171 3066.33 875.876 3079.53 890.56 3082.39 919.413 3086.14 957.482 3047.31 982.724 3013.68 987.092 3012.07 988.467 3024.76 1022.44 3025.75 1027.84 3031.63 1060 3021.59 1106.87 2992.12 1125.27 2968.64 1139.95 2946.6 1139.82 2922.83 1125.47 2917.23 1144.32 2924.17 1162.51 2926.82 1181.12 2928.65 1194.01 2929.23 1207.53 2931.43 1220.39 2939.48 1267.5 2951.72 1313.86 2962.72 1360.22 3004.5 1373.46 3040.75 1413.76 3088.06 1400.9 3090.47 1398.36 3078.19 1384.53 3075.92 1380.78 3065.23 1363.07 3055.12 1343.4 3070.18 1324.9 3080.98 1311.63 3104.47 1303.1 3120.73 1310.15 3129.29 1313.86 3141.67 1332.71 3144.15 1341.68 3150.3 1364.28 3136.89 1390.1 3119.77 1404.34 3133.01 1415.31 3146.28 1422.32 3163.47 1425.25 3201.44 1431.68 3203.29 1421.26 3234.07 1409.88 3255.9 1401.79 3275.54 1397.67 3296 1411.9L3296 1432.47C3287.54 1426.38 3274.85 1419.51 3264.16 1419.54 3248.41 1419.61 3227.6 1432.64 3212.23 1437.49 3176.06 1448.94 3140.57 1442.27 3111.38 1418.13 3109.76 1416.79 3108.94 1413.42 3107.77 1413.18 3105.12 1412.63 3087.38 1418.27 3081.84 1418.71 3055.57 1420.95 3030.4 1416.27 3008.9 1400.9 3007.22 1404.48 3003.81 1408.98 3002.37 1412.25 3001.27 1414.72 3001.58 1417.61 3000.48 1419.95 2990.4 1441.07 2974.69 1473.15 2946.25 1463.25 2922.87 1455.1 2920.94 1402.24 2931.05 1383.74 2934.87 1376.72 2947.52 1368.54 2947.66 1363.31 2947.83 1357.23 2941.82 1333.26 2940.1 1325.48 2929.78 1279.4 2918.91 1234.63 2912 1187.65 2909.11 1167.95 2907.81 1147.93 2904.92 1128.23 2896.46 1132.52 2895.26 1143.74 2887.72 1150.17 2871.01 1164.4 2837.18 1174.65 2815.62 1169.84 2811.21 1168.84 2807.19 1166.81 2803.06 1165.23 2799.56 1167.77 2805.13 1194.29 2805.61 1200.24 2808.02 1229.92 2804.27 1262.31 2803.17 1292.23 2802.55 1308.91 2802.69 1325.72 2801.59 1342.44 2802.34 1345.67 2814.31 1344.36 2817.33 1344.85 2835.97 1347.91 2850.59 1358.84 2856.29 1377.31 2865.58 1407.37 2840.86 1458.16 2811.25 1470.09 2805.33 1472.46 2793.44 1473.6 2789.62 1467.68 2788.24 1465.55 2789.62 1459.16 2785.77 1459.77 2782.98 1460.22 2775.97 1470.26 2771.77 1473.29 2759.43 1482.27 2737.01 1483.78 2722.74 1478.69 2693.78 1468.34 2694.92 1438.76 2687.35 1413.87 2679.44 1387.83 2654.55 1351.93 2624.7 1374.9 2610.33 1385.94 2595.4 1407.3 2580.68 1420.16 2568.51 1430.82 2540.73 1451.38 2525.6 1455.79 2507.27 1461.12 2488.63 1455.34 2480.52 1437.46 2472.43 1419.64 2475.46 1394.92 2472.5 1375.56 2469.27 1373.11 2465.56 1378 2463.63 1380.44 2451.66 1395.64 2441.35 1444.99 2427.35 1451.25 2414.63 1456.92 2413.05 1449.01 2410.85 1438.25 2402.22 1395.85 2416.21 1292.37 2427.7 1248.8 2432.3 1231.36 2438.7 1214.41 2446.3 1198.11 2419.34 1194.87 2388.56 1180.12 2375.39 1155.63 2366.08 1181.53 2351.43 1205.09 2340.04 1230.05 2334.92 1241.26 2329.8 1253.06 2324.88 1264.31 2310.16 1298.01 2296.27 1332.47 2285.4 1367.61 2285.03 1372.84 2300.67 1370.29 2305.04 1370.88 2332.75 1374.63 2339.98 1413.11 2337.53 1435.84 2334.16 1466.79 2288.4 1470.13 2271.44 1448.15 2268.97 1444.92 2260.44 1426.69 2260.44 1423.49L2260.44 1403.62C2250.88 1408.05 2242.18 1414.52 2232.72 1419.2 2186.51 1442.03 2148.34 1445.98 2097.45 1439.04 2091.67 1438.25 2074.96 1433.23 2071.21 1433.74 2066.81 1434.33 2063.37 1439.83 2059.89 1441.79 2008.86 1470.57 1960.83 1487.77 1903.81 1461.84 1899.17 1459.74 1888.72 1451.87 1885.11 1451.56 1879.57 1451.11 1874.86 1461.29 1863.2 1461.29 1836 1461.25 1825 1418.51 1836.59 1397.67 1837.82 1395.4 1840.92 1393.85 1841.61 1391.68 1843.46 1385.63 1839.13 1377.34 1837.93 1371.22 1836.41 1363.48 1834.49 1356.23 1832.87 1348.83 1824.72 1311.9 1817.91 1274.42 1809.35 1237.69 1803.64 1237.62 1799.41 1242.16 1793.77 1242.67 1786 1243.4 1776.2 1239.1 1768.57 1244.63 1764.58 1247.52 1755.16 1269.95 1750.76 1276.58 1739.1 1294.19 1725.34 1303.3 1708.56 1315.44L1719.36 1404.99C1736.38 1401.9 1751.99 1396.6 1766.23 1409.74 1795.43 1436.73 1759.73 1513.15 1723.18 1483.13 1721.05 1481.37 1716.92 1474.05 1714.38 1473.6 1712.14 1473.22 1708.98 1478.69 1705.68 1479.72 1685.7 1486.12 1680.85 1457.09 1684.22 1443.3 1684.6 1441.72 1689.72 1428.89 1690.41 1427.93 1694.88 1421.77 1704.23 1421.26 1704.33 1411.15 1704.47 1399.63 1700.04 1380.92 1698.73 1368.64 1698.21 1363.76 1699.24 1358.46 1698.69 1353.61 1697.35 1341.89 1694.6 1330.37 1693.19 1318.64 1663.62 1324.73 1638.14 1311.52 1618.81 1290.54 1617.82 1289.48 1617.61 1287.28 1617.44 1287.17 1614.86 1285.18 1614.48 1289.34 1613.38 1290.54 1581.92 1325.21 1511.91 1322.56 1490.55 1278.51 1488.56 1274.42 1486.7 1263.79 1483.23 1262.52 1481.44 1261.86 1476.45 1269.74 1476.28 1271.36 1475.52 1278.82 1482.57 1299.38 1483.78 1308.56 1487.39 1335.97 1485.77 1364.07 1490.83 1391.31 1501.69 1391 1509.84 1386.83 1520.16 1391.58 1531.54 1396.84 1544.95 1411.29 1546.91 1423.84 1550.07 1444.06 1526.31 1459.36 1508.12 1459.84 1482.68 1460.46 1461.56 1450.28 1466.65 1421.4 1468.06 1413.25 1476.8 1404.37 1477.07 1401.59 1477.66 1395.64 1473.43 1377.93 1472.94 1370.09 1471.5 1346.26 1471.4 1324.18 1467.27 1300.35 1466.62 1296.46 1461.77 1275.55 1459.74 1275.03 1457.06 1274.38 1440.62 1279.09 1435.05 1279.06 1424.84 1278.99 1414.49 1275.21 1404.93 1272.15 1403.11 1272.7 1398.7 1285.35 1397.53 1288.17 1386.57 1315.1 1372.23 1351.07 1364.52 1378.65 1362.77 1384.91 1362.87 1391.55 1360.02 1397.46 1373.95 1394.81 1388.25 1398.49 1397.78 1409.19 1407.95 1420.64 1410.81 1439.45 1403.45 1453 1392.69 1472.88 1371.54 1486.12 1349.63 1473.53 1331.55 1463.15 1335.23 1446.09 1336.6 1428.27 1334.37 1427.76 1333.4 1428.72 1331.75 1429.62 1320.09 1435.87 1310.74 1445.74 1296.64 1450.87 1272.23 1459.74 1250.36 1451.45 1249.81 1423.39 1249.71 1418.13 1252.28 1411.05 1252.59 1405.65 1253.21 1394.74 1254.76 1371.98 1241.62 1368.61 1216.38 1362.14 1202.18 1386.66 1181 1393.99L1181 1374.8ZM2575.39 495.735C2553.38 472.9 2521.95 481.773 2499.5 499.415 2495.44 502.578 2491.76 507.702 2488.46 510.35 2476.04 520.254 2461.02 527.786 2453.35 542.573 2461.09 546.528 2470.06 548.316 2477.66 552.581 2490.07 559.596 2505 571.357 2509.81 584.976 2517.07 605.575 2504.76 620.534 2493.27 636.732 2491.76 638.864 2487.84 638.589 2489.15 643.231 2495.58 641.821 2504.59 643.816 2511.5 644.985 2558.99 652.964 2594.92 670.537 2619.68 712.733 2636.8 741.86 2637.97 775.837 2610.36 798.809 2594.99 811.602 2574.7 813.838 2556.23 807.372 2549.36 804.965 2532.13 795.852 2526.32 791.897 2523.84 790.212 2487.32 751.214 2485.81 748.635 2483.58 744.886 2474.12 717.237 2471.95 717.237 2453.14 733.882 2457.58 755.994 2454.55 778.004 2443.69 857.203 2409.92 948.507 2330.79 980.971 2305.35 991.39 2275.5 996.858 2248.2 992.628 2247.41 1001.98 2245 1011.3 2245.38 1020.79 2246.41 1045.11 2264.77 1096.73 2284.68 1111.86 2304.63 1127.02 2341.63 1131.18 2365.59 1125.23 2373.98 1123.14 2373.78 1111.03 2377.8 1104.5 2384.82 1093.11 2407.27 1080.73 2418.96 1091.91 2430.65 1103.09 2417.66 1118.91 2407 1125.34 2392.97 1133.76 2371.2 1132.94 2391.38 1153.64 2396.75 1159.14 2412.26 1170.87 2419.03 1174.07 2424.22 1176.54 2445.13 1182.84 2450.19 1182.77 2455.62 1182.7 2453.83 1173.62 2461.02 1173.52 2469.13 1173.38 2467.76 1182.22 2468.51 1183.01 2472.16 1186.79 2507.23 1177.95 2513.87 1175.51 2520.06 1173.24 2549.15 1159.69 2550.84 1154.74 2552.07 1151.09 2550.73 1143.12 2551.7 1137.79 2553.76 1126.3 2563.49 1110.27 2573.46 1104.53 2583.99 1098.51 2597.29 1103.57 2596.4 1116.4 2595.92 1123.38 2589.45 1139.71 2584.74 1144.6 2576.66 1152.92 2568.27 1150.27 2577.45 1164.34 2617.41 1225.62 2726.59 1224.62 2771.36 1171.42 2773.42 1168.98 2779.85 1159.35 2779.34 1156.7 2778.55 1152.61 2764.1 1144.01 2759.98 1138.89 2748.35 1124.44 2746.02 1095.97 2761.01 1083.04 2768.09 1076.92 2780.82 1077.85 2787.11 1084.48 2795.15 1092.94 2803.2 1122.62 2804.37 1134.45 2805.37 1144.6 2800 1147.69 2814 1152.26 2835.87 1159.42 2871.25 1145.01 2885.59 1127.54 2887.97 1124.65 2898.73 1108.01 2899.18 1105.29 2899.93 1100.68 2896.08 1096.62 2895.39 1091.81 2894.09 1082.87 2896.22 1071.07 2900.96 1063.37 2909.42 1049.58 2915.99 1063.95 2917.98 1073.41 2921.01 1087.68 2913.14 1099.03 2926.99 1109.66 2947.63 1125.47 2974 1123.31 2992.33 1104.98 3010.59 1086.68 3013.41 1066.02 3012.31 1041.19 3011.83 1029.98 3004.06 996.136 2994.32 990.565 2991.57 988.983 2984.8 989.877 2982.87 985.407 2979.23 976.844 2988.89 975.915 2988.89 971.341 2988.89 970.55 2980.91 959.58 2979.81 958.411 2975.96 954.319 2970.46 952.565 2964.85 952.874 2952.75 958.205 2940.68 968.074 2928.82 973.267 2909.87 981.589 2896.29 983.068 2875.93 978.185 2845.91 970.997 2839.48 950.914 2837.38 922.68 2826.89 924.228 2817.68 923.54 2807.29 921.821 2802.14 920.961 2798.18 917.659 2792.13 918.76 2789.03 927.048 2783.91 935.817 2778.75 943.107 2743.95 992.319 2671.84 1027.09 2611.84 1005.28 2606.16 1003.22 2593.61 994.554 2588.9 995.242 2586.91 995.517 2562.08 1015.67 2556.06 1018.83 2549.5 1022.31 2530.79 1027.91 2535.02 1014.4 2538.08 1004.63 2573.91 991.459 2575.59 984.719 2576.49 981.211 2568.34 973.577 2566.07 969.966 2553.62 950.158 2547.36 929.249 2554.38 906.208 2561.53 882.685 2581.44 869.996 2601.42 890.251 2624.25 913.43 2612.53 957.001 2600.53 982.931 2614.18 989.809 2625.66 993.179 2641.1 993.97 2691.48 996.515 2742.13 970.379 2770.47 929.386 2772.8 926.016 2778.68 918.554 2776.14 914.461 2774.97 912.57 2755.68 903.56 2751.31 900.774 2711.29 875.532 2689.04 843.172 2690.86 794.545 2692.27 756.785 2726.73 721.777 2765.86 731.475 2821.7 745.299 2826.24 827.525 2812.55 872.575 2809.98 881.035 2804.51 891.214 2801.31 899.846 2800.73 901.393 2799.66 901.152 2801.59 902.769 2803.85 904.695 2818.81 906.036 2822.97 906.208 2830.2 906.483 2839.03 908.34 2842.54 901.049 2851.41 882.685 2856.64 851.047 2876.03 838.461 2898.32 823.948 2903.65 847.642 2904.85 864.459 2905.78 877.114 2904.47 881.069 2897.18 891.042 2886.31 905.829 2870.94 913.43 2855.3 922.268 2854.33 925.672 2856.36 939.222 2857.6 943.005 2865.37 966.424 2900.76 967.146 2920.32 959.305 2937.31 952.53 2948.18 935.783 2968.81 936.333 2987.24 936.849 2998.97 956.623 3007.53 970.654 3022.59 968.35 3050.58 959.855 3059.35 946.891 3094.73 894.687 3002.89 854.864 2986.45 812.015 2978.68 791.725 2977.1 763.904 2986.45 744.13 2989.58 737.493 2994.67 735.361 2998.31 729.893 3004.26 720.986 3012.89 701.934 3017.64 691.549 3034.69 654.202 3047.66 610.974 3002.54 589.102 2989.68 582.878 2960.8 578.82 2947.59 584.838 2937.21 589.584 2933.94 604.474 2926.93 613.588 2921.35 620.809 2902.89 638.451 2894.26 639.999 2880.23 642.543 2875.72 631.883 2879.37 619.709 2883.01 607.638 2906.22 588.655 2916.85 581.64 2923.14 577.479 2932.53 576.756 2934.87 568.056 2938.89 553.096 2936.62 524.244 2923.49 514.271 2888 487.275 2824.14 511.726 2790.2 532.325 2781.85 537.415 2764.62 548.11 2761.04 556.742 2756.61 567.471 2755.95 579.129 2749.08 590.065 2743.82 598.422 2727.93 614.31 2718.4 603.305 2710.39 594.054 2717.96 582.396 2723.18 573.868 2728.51 565.133 2741.96 551.962 2744.61 543.124 2751.17 521.183 2726.55 488.754 2704.68 486.828 2683.64 484.971 2655.72 493.981 2638.8 506.327 2633.3 510.35 2613.8 529.677 2613.01 535.592 2612.46 539.719 2615.59 549.451 2615.86 554.644 2616.58 569.088 2619.44 602.067 2598.57 601.758 2578.41 601.448 2582.23 563.07 2586.46 550.173 2587.73 546.253 2591.65 541.748 2592.31 538.172 2594.65 525.207 2584.33 504.848 2575.39 495.563ZM1859.32 642.509C1850.62 633.43 1831.88 625.246 1819.26 624.111 1785.83 621.119 1751.65 657.778 1748.52 689.348 1747.76 696.913 1749.9 708.984 1747.11 715.346 1745.22 719.645 1737.9 722.43 1733.84 720.126 1721.87 713.283 1728.06 696.81 1725.69 685.702 1720.74 662.489 1675.45 645.295 1654.16 647.564 1636.49 649.456 1611.59 666.547 1613.35 686.459 1614.03 694.265 1628.51 702.622 1634.12 708.331 1638.86 713.18 1651.79 726.97 1653.99 732.369 1661.18 749.804 1655.88 770.507 1634.15 760.328 1619.78 753.587 1611.18 741.31 1605.82 726.866 1603.24 719.954 1603.03 712.389 1599.21 706.027 1593.81 696.982 1576.04 689.279 1566.13 685.53 1552.14 680.2 1540.52 675.695 1526.11 683.226 1522.12 685.324 1503.41 702.209 1499.77 706.336 1495.47 711.219 1482.61 728.173 1481.71 733.744 1480.3 742.548 1493.13 758.539 1495.95 767.721 1499.32 778.76 1501.86 793.754 1493.34 802.73 1479.86 816.933 1463.35 805.103 1455.3 791.725 1451.25 784.985 1449.05 772.501 1449.46 764.661 1449.8 757.886 1458.57 745.609 1457.57 741.585 1455.61 733.504 1420.16 715.14 1411.5 713.351 1385.77 708.09 1348.36 732.713 1336.36 754.756 1326.83 772.295 1324.94 796.815 1330.45 815.935 1333.3 825.84 1359.4 871.681 1366.96 876.908 1378.07 884.542 1389.18 888.428 1399.29 899.536 1413.63 915.286 1402.83 929.627 1383.02 919.826 1373.22 914.977 1368.58 905.141 1362.32 898.608 1346.16 881.722 1315.66 880.622 1294.2 886.846 1257.03 897.645 1214.25 956.898 1226.8 995.792 1234.44 1019.38 1269.51 1039.54 1293.69 1039.12 1304.96 1011.13 1340.14 968.797 1374.5 983.103 1381.51 986.026 1390.38 996.824 1390.21 1004.22 1389.73 1022.07 1375.7 1040.26 1360.47 1048.72 1342.89 1058.48 1327.45 1058.07 1308.3 1059.86 1302.73 1060.38 1303.31 1056.59 1299.12 1063.06 1284.75 1085.31 1285.36 1124.41 1299.6 1146.69 1314.87 1170.56 1351.08 1183.9 1378.62 1180.57 1384.47 1179.84 1387.87 1170.53 1391.65 1166.12 1398.26 1158.45 1404.27 1152.85 1414.38 1150.27 1425.66 1147.38 1430.41 1149.44 1428.83 1162.03 1428.38 1165.64 1425.66 1168.01 1426.76 1170.9 1442.17 1166.74 1459.64 1158.49 1473.05 1149.82 1475.28 1148.38 1482.5 1143.87 1482.13 1141.4 1481.99 1140.54 1473.53 1130.91 1471.84 1127.37 1454.96 1091.5 1460.81 1025.23 1506.09 1014.19 1525.21 1009.55 1539.24 1011.41 1551.11 1027.91 1576.04 1062.65 1543.58 1101.92 1523.32 1129.29L1508.67 1140.74 1516.72 1148.45C1543.99 1161.65 1567.61 1170.7 1598.84 1168.08 1601.69 1167.84 1623.35 1163.44 1624.35 1162.62 1624.49 1162.51 1623.18 1160.59 1623.46 1159.49 1624.01 1157.18 1626.14 1155.19 1626.76 1152.02 1628.48 1143.53 1628.06 1133.73 1630.23 1125.34 1637.04 1098.72 1672.39 1082.11 1676.52 1119.63 1677.99 1133.18 1672.77 1140.06 1664.86 1150.2 1661.93 1153.95 1645.22 1169.6 1645.26 1171.28 1655.44 1213.27 1700.96 1243.95 1744.12 1236.62 1745.8 1230.81 1738.72 1227.75 1737.55 1223.28 1736.86 1220.6 1734.94 1205.09 1735.11 1202.3 1735.66 1192.36 1742.09 1180.91 1753.13 1180.39 1772.49 1179.43 1782.6 1215.71 1773.04 1229.78 1791.54 1229.43 1807.08 1225.45 1822.49 1215.3 1857.87 1191.95 1865.57 1147.52 1865.3 1107.83 1859.56 1109.21 1853.02 1106.46 1848 1106.42 1842.05 1106.39 1837.82 1108.31 1830.5 1107.49 1750.69 1098.45 1688.76 1027.57 1672.87 951.946 1666.23 920.307 1666.06 880.141 1656.64 850.256 1656.16 848.674 1652.31 838.357 1651.79 837.945 1647.6 834.574 1646.74 843.894 1645.26 847.058 1631.92 875.36 1606.26 920.479 1577.86 934.82 1544.3 951.808 1503.72 946.065 1504.44 901.6 1505.13 859.129 1544.71 820.716 1579.03 800.357 1601.86 786.807 1603.86 788.424 1629.13 787.151 1632.57 786.979 1644.64 783.713 1646.43 785.019 1650.17 792.206 1645.77 800.288 1646.36 807.75 1635.35 805.859 1628.75 802.833 1616.79 803.658 1574.66 806.512 1507.88 867.795 1521.46 912.192 1531.92 946.444 1576.59 918.382 1591.99 902.322 1614.45 878.937 1619.95 853.626 1635.59 827.869 1640.1 820.475 1646.29 808.679 1656.09 816.589 1662.97 822.16 1663.72 841.762 1675.28 844.719 1673.45 834.781 1680.5 818.274 1685.97 809.47 1700.93 785.26 1720.7 779.895 1746.22 792.654 1785.69 812.427 1777.06 845.716 1800.58 873.813 1823.28 900.946 1869.25 885.918 1875.96 853.282 1879.78 834.746 1875.13 822.057 1863.24 807.716 1847.42 788.63 1814.1 773.258 1789.58 782.406 1781.43 785.466 1767.67 800.219 1762.45 800.666 1758.7 800.976 1754.09 793.823 1755.4 789.559 1757.05 784.056 1776.58 769.406 1782.43 767.068 1806.57 757.336 1849.24 771.298 1869.36 786.601 1874.24 790.315 1876.75 795.474 1881.15 799.497 1883.35 799.497 1882.32 785.191 1895.97 788.905 1902.27 790.625 1923.52 806.65 1931.56 811.018 1947.79 819.89 2005.25 850.531 2007.21 813.872 2009.17 777.213 1944.05 755.444 1915.54 754.688 1899.86 754.275 1856.46 768.959 1846.01 756.029 1833.84 740.932 1853.75 721.639 1860.86 709.431 1872.28 689.76 1876.1 660.117 1859.25 642.543ZM2290.42 664.243C2287.98 662.249 2277.91 657.606 2274.81 657.469 2245.34 656.024 2212.71 686.665 2209.79 715.38 2208.65 726.66 2211.95 744.474 2219.9 752.934 2241.94 776.456 2280.52 755.1 2294.21 732.231 2304.97 714.28 2308.17 678.687 2290.42 664.209ZM2400.7 677.827C2371.2 680.819 2338.39 715.036 2340.42 745.334 2342.35 773.705 2373.33 798.156 2400.98 789.18 2416.52 784.125 2435.12 756.682 2436.67 741.001 2438.46 723.049 2423.95 675.454 2400.7 677.827ZM1623.63 720.814C1621.7 718.888 1620.29 713.902 1616.2 716.584 1619.88 718.957 1635.59 751.111 1640.96 746.056 1643.33 743.821 1626.24 723.427 1623.63 720.849ZM2786.46 896.682C2788.62 888.875 2792.03 881.482 2794.36 873.744 2803.24 844.547 2807.26 804.656 2793.95 776.319 2782.26 751.455 2759.56 733.607 2732.91 752.28 2686.08 785.088 2708.6 848.261 2746.7 878.146 2757.5 886.606 2772.49 896.2 2786.46 896.682ZM1471.43 757.164C1468.06 754.997 1467.1 758.127 1466.51 760.809 1463.69 773.774 1465.17 789.662 1481.2 791.278 1482.4 790.418 1482.64 779.104 1482.13 777.144 1481.75 775.665 1472.39 757.783 1471.43 757.198ZM3123.55 804.69C3123.69 804.415 3122.9 798.947 3121.14 799.463 3118.36 810.364 3110.55 821.3 3111.65 832.855 3113.44 851.804 3120.94 835.916 3122.17 825.84 3123.1 818.308 3120.73 810.502 3121.07 805.722 3121.14 804.896 3123.45 804.931 3123.55 804.69ZM1757.19 823.57C1749.9 814.25 1740.72 806.65 1729.47 802.523 1707.67 794.511 1690.99 826.08 1689.14 844.031 1686.42 870.787 1709.84 915.699 1740.75 913.189 1769.26 910.885 1775.31 863.634 1768.29 841.968 1766.51 836.432 1760.66 828.006 1757.19 823.57ZM1884.69 1087.23C1894.7 1084.55 1904.71 1081.11 1913.48 1075.47 1985.41 1029.12 1940.5 911.538 1906.94 853.351 1905.19 850.291 1894.32 832.786 1892.98 831.617 1891.98 830.792 1890.23 830.31 1890.16 831.651 1894.49 849.121 1888.34 872.988 1875.79 885.815 1855.53 906.517 1820.22 911.882 1797.28 892.555 1794.15 889.942 1788.65 881.138 1785.59 883.064 1785.04 883.407 1783.91 891.489 1783.05 893.587 1764.75 939.566 1725.21 937.399 1692.54 906.311L1683.63 892.589C1682.15 896.544 1682.19 900.121 1682.19 904.282 1682.5 952.255 1708.46 1015.64 1743.47 1048.82 1773.55 1077.36 1819.15 1092.87 1860.55 1092.39 1862.1 1092.39 1865.68 1091.46 1866.74 1090.57 1870.46 1087.47 1866.92 1051.64 1863.3 1047.38 1861.76 1045.55 1846.8 1045.79 1841.64 1044.28 1829.71 1040.77 1813.31 1022.86 1816.13 1010.06 1817.91 1002.05 1832.43 1000.64 1839.1 1002.91 1847.38 1005.73 1868.22 1021.65 1873.38 1029.01 1874.27 1030.32 1875.48 1036.47 1876.99 1036.41 1877.95 1036.37 1878.74 1032.66 1880.81 1031.8 1883.83 1030.56 1885.66 1032.69 1888.72 1030.39 1894.56 1026.05 1896.63 1015.53 1890.75 1010.41 1888.24 1010.41 1886.93 1027.02 1876.96 1026.91 1869.98 1026.85 1871.01 1016.25 1872.31 1011.23 1874.96 1000.99 1884.07 987.883 1896.11 994.107 1920.46 1006.73 1910.21 1052.29 1880.43 1046L1884.59 1087.13ZM2886.9 854.452C2884.29 852.182 2878.65 855.655 2876.82 858.544 2871.63 866.694 2864.89 879.556 2861.59 888.6 2859.97 893.002 2857.95 897.438 2858.15 902.287 2875.14 897.266 2892.99 881.516 2889.27 862.086 2889.07 861.02 2887.21 854.727 2886.93 854.486ZM2256.42 921.408C2259.1 922.886 2302.49 899.295 2281.97 896.682 2268.76 894.997 2256.69 909.062 2256.42 921.408ZM2590.62 967.627C2592.41 965.873 2598.7 943.486 2599.12 939.772 2600.25 929.73 2600.22 919.757 2595.4 910.885 2588.97 899.055 2582.2 889.426 2571.95 904.523 2558.61 924.228 2572.88 952.599 2585.67 969.243 2586.56 969.863 2589.73 968.453 2590.62 967.627ZM1309.13 1043.39 1329.1 1043.39C1337.32 1043.39 1355.62 1034.03 1362.12 1028.26 1370.2 1021.1 1380.86 1006.49 1369.06 998.165 1357.27 989.843 1339.56 1003.19 1331.17 1011.16 1327.87 1014.33 1305.86 1040.29 1309.16 1043.39ZM1493.65 1131.08C1496.57 1131.22 1498.46 1129.33 1500.52 1127.68 1514.04 1116.98 1544.92 1074.61 1545.23 1057.8 1545.43 1045.97 1535.29 1027.6 1522.05 1028.43 1518.78 1028.63 1505.1 1031.14 1502.45 1032.31 1481.71 1041.32 1475.49 1084.62 1480.2 1104.02 1482.71 1114.44 1489.31 1122.07 1493.65 1131.08ZM2777.86 1097.24C2774.45 1094.25 2773.22 1095.76 2770.77 1098.27 2764 1105.29 2764.89 1117.08 2769.98 1124.92 2771.5 1127.26 2784.63 1138.47 2786.52 1136.55 2786.35 1127.88 2784.25 1102.85 2777.86 1097.24ZM1643.71 1148.89C1650.04 1146.62 1668.19 1120.8 1657.98 1117.46 1647.77 1114.13 1642.03 1142.05 1643.71 1148.89ZM1745.6 1253.03 1715.99 1253.03C1707.94 1253.03 1684.05 1242.16 1676.34 1237.69 1652.51 1223.86 1635.77 1204.54 1628.55 1177.64 1620.09 1178.47 1611.52 1184.59 1603.1 1184.59 1581.5 1184.59 1549.9 1180.64 1529.89 1172.38 1523.53 1169.77 1497.46 1154.02 1494.4 1154.29 1490.41 1154.67 1482.64 1162.68 1478.93 1165.02 1453.62 1181.01 1425.28 1190.47 1396.16 1197.07 1391.45 1210.04 1388.28 1226.86 1395.33 1239.13 1400.22 1247.66 1404.51 1250.41 1411.77 1255.71 1413.04 1256.64 1413.08 1258.63 1414.87 1259.8 1423.87 1265.65 1449.18 1261.9 1459.09 1257.67 1461.56 1256.6 1482.99 1243.05 1483.74 1241.81 1484.5 1240.61 1483.74 1237.31 1484.64 1235.18 1485.53 1232.94 1499.63 1214.27 1500.8 1213.58 1502.96 1212.34 1508.67 1213.79 1511.53 1213.27 1510.91 1218.91 1512.56 1226.06 1511.18 1231.43 1509.22 1239.17 1497.94 1246.18 1499.15 1256.29 1499.66 1260.56 1506.61 1276.93 1509.53 1280.33 1528.72 1302.65 1567.65 1301.62 1591.44 1288.03 1593.75 1286.73 1606.71 1275.58 1607.64 1274 1611.63 1267.09 1606.4 1259.18 1610.63 1252.3 1615.07 1245.08 1628.61 1242.92 1631.02 1251.27 1634.77 1264.34 1624.45 1274.18 1636.76 1286.66 1673.97 1324.45 1722.46 1293.88 1744.15 1257.46 1745.05 1255.98 1745.94 1254.92 1745.6 1253.03ZM2564.83 1166.71C2558.61 1165.64 2556.82 1172.11 2553.9 1174.31 2531.17 1191.43 2507.54 1195.73 2479.96 1199.45 2476.22 1199.96 2466.93 1198.17 2465.8 1201.85 2467 1224.31 2470.13 1246.46 2472.57 1268.81 2473.05 1273.28 2472.09 1278.03 2472.57 1282.5 2475.32 1306.54 2481.31 1330.51 2485.16 1354.23 2530 1360.6 2514.42 1409.6 2513.87 1440.76 2521.5 1446.02 2565.21 1411.63 2572.4 1405.2 2589.8 1389.62 2613.45 1354.58 2636.01 1350.69 2657.02 1347.08 2676.86 1363.14 2687.94 1379.23 2700.59 1397.63 2703.93 1419.23 2710.05 1439.45 2714.55 1454.41 2719.33 1460.5 2735.18 1463.76 2742.3 1465.24 2746.98 1463.94 2753.41 1464.11 2751 1444.06 2749.35 1423.39 2751.35 1403.79 2752.21 1380.92 2765.55 1360.97 2785.18 1349.76 2789.14 1306.74 2793.81 1260.21 2792.58 1216.74 2792.16 1202.95 2789.27 1190.02 2789.21 1176.34 2753.48 1222.07 2682.33 1235.49 2628.07 1220.91 2608.61 1215.68 2587.87 1202.95 2575.18 1187.24 2571.09 1182.15 2564.25 1173.04 2564.76 1166.71ZM2468.14 1356.85C2471.82 1353.41 2466.79 1342.95 2466.04 1338.31 2462.19 1314.62 2457.99 1289.82 2456.03 1266.06 2454.79 1250.82 2453.97 1235.35 2455.38 1220.15L2451.7 1223.42C2429.97 1288.38 2424.12 1355.4 2423.02 1423.63 2424.64 1428.93 2425.91 1426.8 2427.94 1423.01 2437.26 1405.51 2439.29 1378.72 2455.41 1364.03 2459.16 1360.63 2466.62 1358.29 2468.17 1356.85ZM2033 1306.81C2007.52 1310.46 1990.19 1342.34 1997.96 1365.69 2004.88 1386.42 2042.74 1410.43 2063.57 1414.14 2070.55 1415.38 2073.06 1412.46 2078.12 1407.92 2085.79 1401.04 2095.66 1384.19 2099.68 1374.56 2119.21 1328.03 2075.61 1300.69 2032.97 1306.81ZM3094.6 1324.62C3091.88 1325.31 3084.04 1332.19 3082.73 1334.73 3075.82 1348.01 3082.59 1360.94 3089.71 1372.67 3091.71 1375.93 3103.71 1393.06 3106.39 1392.61 3118.19 1386.18 3131.6 1364.45 3130.32 1351.17 3129.77 1345.33 3120.52 1331.33 3115.5 1327.79 3110.04 1323.94 3101.03 1322.97 3094.6 1324.59ZM2790.68 1453.1C2795.43 1449.87 2797.77 1456.3 2802.07 1455.68 2806.61 1455.03 2820.46 1442.72 2823.7 1438.69 2834.8 1424.9 2844.84 1394.16 2836.66 1377.89 2831.09 1366.82 2816.65 1357.36 2803.92 1361.52 2799.69 1362.9 2802.03 1380.34 2801.69 1385.22 2800.93 1396.22 2800.14 1408.71 2798.9 1419.57 2797.56 1431.47 2795.33 1442.1 2790.65 1453.14ZM2785.15 1372.25C2784.36 1371.46 2781.61 1372.25 2780.44 1373.7 2767.03 1390.24 2767.1 1406.09 2767.23 1426.45 2767.27 1431.23 2768.71 1436.42 2768.68 1441.48 2768.68 1446.47 2764.17 1457.16 2772.08 1451.73 2778 1432.06 2783.98 1411.49 2785.15 1390.72 2785.29 1388 2785.8 1372.91 2785.15 1372.25ZM2494.65 1432.54C2496.75 1434.19 2498.16 1430.61 2498.71 1429.03 2502.39 1418.16 2504.38 1381.85 2494.06 1374.9 2492.79 1374.04 2490.35 1372.84 2489.18 1373.63 2486.7 1375.28 2491.24 1429.82 2494.68 1432.54ZM2977.92 1427.07C2978.82 1421.98 2982.77 1418.68 2984.83 1414.07 2985.86 1411.77 2991.68 1396.05 2991.47 1395.05 2990.47 1389.86 2971.56 1382.43 2966.92 1379.1 2969.32 1394.23 2971.9 1409.53 2975.82 1424.35 2976.17 1425.63 2976.17 1427.45 2977.89 1427.04ZM2294.65 1386.22C2291.73 1386.53 2278.73 1391.62 2277.15 1393.68 2275.09 1396.36 2275.4 1415.14 2276.05 1419.2 2278.22 1433.09 2293.52 1450.18 2308.89 1445.4 2319.62 1442.06 2322.23 1430.92 2322.54 1420.85 2322.99 1406.33 2311.78 1384.29 2294.65 1386.22ZM2951.75 1385.98C2949.21 1383.02 2943.16 1396.29 2942.71 1398.22 2940.37 1408.6 2941.44 1451.9 2957.87 1450.46 2960.45 1450.21 2969.36 1439.86 2969.36 1438.76 2969.36 1437.49 2962.58 1430.68 2961.28 1427.9 2955.95 1416.41 2953.3 1398.56 2951.72 1386.01ZM1878.74 1395.98C1874.41 1392.89 1868.74 1395.36 1864.03 1395.57 1863.89 1397.08 1863.99 1398.56 1864.34 1400.04 1864.71 1401.73 1873.11 1421.77 1874 1422.63 1874.93 1423.56 1878.3 1423.29 1879.67 1424.49 1882.39 1424.59 1886.52 1434.57 1888.79 1432.54 1892.22 1429.48 1891.5 1416.24 1889.82 1411.66 1888.92 1409.22 1880.4 1397.15 1878.74 1395.98ZM1519.26 1411.15C1505.13 1401.38 1488.87 1407.61 1490.96 1426.25 1492.99 1444.06 1502.24 1445.23 1517.65 1440.69 1535.12 1435.53 1531.33 1419.47 1519.26 1411.15ZM1852.95 1406.51C1848.66 1403.03 1847.59 1412.32 1847.42 1415.34 1846.83 1424.7 1849.69 1444.78 1861.93 1444.92 1866.98 1444.99 1869.98 1443.41 1866.85 1438.63 1864.16 1434.53 1856.81 1422.05 1855.05 1417.48 1854.23 1415.34 1853.4 1406.85 1852.99 1406.51ZM1384.43 1417.89C1379.69 1413.66 1367.17 1412.35 1361.08 1413.73 1350.56 1416.13 1347.4 1442.44 1350.8 1450.66 1357.41 1466.69 1378.48 1462.04 1386.84 1450.25 1392.62 1442.1 1392.17 1424.8 1384.47 1417.89ZM1757.63 1423.29C1755.81 1421.33 1743.74 1417.41 1740.75 1417.44 1738.14 1417.44 1722.56 1422.15 1722.15 1423.87 1722.25 1437.22 1721.25 1452.07 1728.65 1463.73 1729.57 1465.17 1736.45 1472.16 1737.72 1472.64 1739.44 1473.26 1748.38 1472.4 1749.76 1471.6 1753.92 1469.2 1761.38 1446.74 1761.93 1441.27 1762.31 1437.53 1759.94 1425.7 1757.67 1423.29Z" fill="#768E42" fill-rule="evenodd"/></g></svg>